<svg width="25" height="17" viewBox="0 0 25 17" fill="#E126EB">
        <path
            d="M4.375 0.85C4.55833 0.816666 4.85 0.774999 5.25 0.725C5.65 0.658333 6.03333 0.625 6.4 0.625C6.78333 0.625 7.11667 0.658333 7.4 0.725C7.7 0.774999 7.95 0.874999 8.15 1.025C8.35 1.175 8.5 1.38333 8.6 1.65C8.7 1.91667 8.75 2.26667 8.75 2.7V11.95C8.75 13.4333 8.325 14.55 7.475 15.3C6.625 16.0333 5.375 16.4 3.725 16.4C2.85833 16.4 2.15833 16.2667 1.625 16C1.24167 15.8167 0.958333 15.5667 0.775 15.25C0.608333 14.9333 0.525 14.575 0.525 14.175C0.525 13.8417 0.566667 13.55 0.65 13.3C0.75 13.05 0.866667 12.85 1 12.7C1.31667 12.7667 1.58333 12.8167 1.8 12.85C2.03333 12.8667 2.28333 12.875 2.55 12.875C3.2 12.875 3.66667 12.7167 3.95 12.4C4.23333 12.0667 4.375 11.5833 4.375 10.95V0.85ZM17.6027 7.875C18.3027 7.875 18.8361 7.71667 19.2027 7.4C19.5861 7.06667 19.7777 6.56667 19.7777 5.9C19.7777 5.26667 19.5777 4.78333 19.1777 4.45C18.7944 4.1 18.2277 3.925 17.4777 3.925C17.2111 3.925 16.9861 3.93333 16.8027 3.95C16.6361 3.95 16.4611 3.96667 16.2777 4V7.875H17.6027ZM16.3027 15.9C16.1194 15.95 15.8277 16 15.4277 16.05C15.0444 16.1 14.6611 16.125 14.2777 16.125C13.8944 16.125 13.5527 16.0917 13.2527 16.025C12.9694 15.975 12.7277 15.875 12.5277 15.725C12.3277 15.575 12.1777 15.3667 12.0777 15.1C11.9777 14.8333 11.9277 14.4833 11.9277 14.05V2.275C11.9277 1.925 12.0194 1.65833 12.2027 1.475C12.4027 1.275 12.6694 1.11667 13.0027 0.999999C13.5694 0.799999 14.2111 0.658332 14.9277 0.574999C15.6611 0.474999 16.3944 0.424999 17.1277 0.424999C19.4277 0.424999 21.1861 0.916666 22.4027 1.9C23.6194 2.88333 24.2277 4.21667 24.2277 5.9C24.2277 6.71667 24.0944 7.45833 23.8277 8.125C23.5777 8.775 23.1944 9.34167 22.6777 9.825C22.1777 10.2917 21.5361 10.6583 20.7527 10.925C19.9861 11.175 19.0944 11.3 18.0777 11.3H16.3027V15.9Z"
        ></path>
</svg>